<mxfile host="app.diagrams.net" modified="2024-04-21T20:25:51.407Z" agent="Mozilla/5.0 (Windows NT 10.0; Win64; x64) AppleWebKit/537.36 (KHTML, like Gecko) Chrome/123.0.0.0 Safari/537.36" etag="w0qs45VIGm5z4IrfwW_g" version="24.2.7" type="github">
  <diagram name="PÃ¡gina-1" id="UzEoF-rYmSKFrYlNtP-b">
    <mxGraphModel dx="1434" dy="746" grid="1" gridSize="10" guides="1" tooltips="1" connect="1" arrows="1" fold="1" page="1" pageScale="1" pageWidth="827" pageHeight="1169" math="0" shadow="0">
      <root>
        <mxCell id="0" />
        <mxCell id="1" parent="0" />
        <mxCell id="PdAt5Vxm2GwkRUOkbxM7-1" value="" style="whiteSpace=wrap;html=1;aspect=fixed;" vertex="1" parent="1">
          <mxGeometry x="114" y="40" width="910" height="910" as="geometry" />
        </mxCell>
        <mxCell id="PdAt5Vxm2GwkRUOkbxM7-4" value="&lt;font style=&quot;font-size: 18px;&quot;&gt;inicio&amp;nbsp; &amp;nbsp;sobre&amp;nbsp; &amp;nbsp;especialidades&amp;nbsp; &amp;nbsp;projetos&lt;/font&gt;" style="text;html=1;align=center;verticalAlign=middle;whiteSpace=wrap;rounded=0;" vertex="1" parent="1">
          <mxGeometry x="276" y="50" width="586" height="70" as="geometry" />
        </mxCell>
        <mxCell id="PdAt5Vxm2GwkRUOkbxM7-5" value="&lt;h1 style=&quot;margin-top: 0px;&quot;&gt;&lt;font style=&quot;font-size: 24px;&quot;&gt;sobre&amp;nbsp;&lt;/font&gt;&lt;/h1&gt;&lt;div style=&quot;font-size: 24px;&quot;&gt;&lt;font style=&quot;font-size: 24px;&quot;&gt;--------------------------------------------------------------------------------------------------------------------------------------------------------------------------------&lt;/font&gt;&lt;/div&gt;" style="text;html=1;whiteSpace=wrap;overflow=hidden;rounded=0;" vertex="1" parent="1">
          <mxGeometry x="130" y="170" width="430" height="210" as="geometry" />
        </mxCell>
        <mxCell id="PdAt5Vxm2GwkRUOkbxM7-7" value="img&lt;div&gt;se mexe&lt;/div&gt;" style="ellipse;whiteSpace=wrap;html=1;aspect=fixed;fillColor=#1ba1e2;fontColor=#ffffff;strokeColor=#006EAF;" vertex="1" parent="1">
          <mxGeometry x="700" y="140" width="250" height="250" as="geometry" />
        </mxCell>
        <mxCell id="PdAt5Vxm2GwkRUOkbxM7-8" value="&lt;font style=&quot;font-size: 16px;&quot;&gt;minhas&amp;nbsp;&lt;/font&gt;&lt;div style=&quot;font-size: 16px;&quot;&gt;&lt;font style=&quot;font-size: 16px;&quot;&gt;especialidades&lt;/font&gt;&lt;/div&gt;" style="text;html=1;align=center;verticalAlign=middle;whiteSpace=wrap;rounded=0;fontSize=16;" vertex="1" parent="1">
          <mxGeometry x="464" y="470" width="210" height="50" as="geometry" />
        </mxCell>
        <mxCell id="PdAt5Vxm2GwkRUOkbxM7-9" value="website" style="rounded=0;whiteSpace=wrap;html=1;" vertex="1" parent="1">
          <mxGeometry x="160" y="570" width="170" height="160" as="geometry" />
        </mxCell>
        <mxCell id="PdAt5Vxm2GwkRUOkbxM7-10" value="loja online" style="whiteSpace=wrap;html=1;aspect=fixed;" vertex="1" parent="1">
          <mxGeometry x="489" y="570" width="160" height="160" as="geometry" />
        </mxCell>
        <mxCell id="PdAt5Vxm2GwkRUOkbxM7-11" value="blog" style="whiteSpace=wrap;html=1;aspect=fixed;" vertex="1" parent="1">
          <mxGeometry x="790" y="570" width="160" height="160" as="geometry" />
        </mxCell>
        <mxCell id="PdAt5Vxm2GwkRUOkbxM7-12" value="" style="whiteSpace=wrap;html=1;aspect=fixed;" vertex="1" parent="1">
          <mxGeometry x="114" y="940" width="910" height="910" as="geometry" />
        </mxCell>
        <mxCell id="PdAt5Vxm2GwkRUOkbxM7-13" value="&lt;h1 style=&quot;margin-top: 0px; font-size: 18px;&quot;&gt;sobre&lt;/h1&gt;&lt;div&gt;--------------------------------------------------------------------------------------------------------------------------------------------------------------------------------------------------------------------------------------------------------------------------------&lt;/div&gt;&lt;p style=&quot;font-size: 18px;&quot;&gt;&lt;br&gt;&lt;/p&gt;" style="text;html=1;whiteSpace=wrap;overflow=hidden;rounded=0;fontSize=18;" vertex="1" parent="1">
          <mxGeometry x="570" y="1010" width="420" height="180" as="geometry" />
        </mxCell>
        <mxCell id="PdAt5Vxm2GwkRUOkbxM7-14" value="img" style="ellipse;whiteSpace=wrap;html=1;fillColor=#1ba1e2;fontColor=#ffffff;strokeColor=#006EAF;" vertex="1" parent="1">
          <mxGeometry x="160" y="980" width="210" height="310" as="geometry" />
        </mxCell>
        <mxCell id="PdAt5Vxm2GwkRUOkbxM7-16" value="whatsapp" style="ellipse;whiteSpace=wrap;html=1;aspect=fixed;fillColor=#1ba1e2;fontColor=#ffffff;strokeColor=#006EAF;" vertex="1" parent="1">
          <mxGeometry x="570" y="1169" width="51" height="51" as="geometry" />
        </mxCell>
        <mxCell id="PdAt5Vxm2GwkRUOkbxM7-17" value="insta" style="ellipse;whiteSpace=wrap;html=1;aspect=fixed;fillColor=#1ba1e2;fontColor=#ffffff;strokeColor=#006EAF;" vertex="1" parent="1">
          <mxGeometry x="640" y="1169" width="51" height="51" as="geometry" />
        </mxCell>
        <mxCell id="PdAt5Vxm2GwkRUOkbxM7-18" value="linkedin" style="ellipse;whiteSpace=wrap;html=1;aspect=fixed;fillColor=#1ba1e2;fontColor=#ffffff;strokeColor=#006EAF;" vertex="1" parent="1">
          <mxGeometry x="700" y="1168" width="51" height="51" as="geometry" />
        </mxCell>
        <mxCell id="PdAt5Vxm2GwkRUOkbxM7-19" value="nome" style="rounded=1;whiteSpace=wrap;html=1;fillColor=#647687;fontColor=#ffffff;strokeColor=#314354;" vertex="1" parent="1">
          <mxGeometry x="419" y="1450" width="300" height="60" as="geometry" />
        </mxCell>
        <mxCell id="PdAt5Vxm2GwkRUOkbxM7-20" value="email&lt;span style=&quot;color: rgba(0, 0, 0, 0); font-family: monospace; font-size: 0px; text-align: start; text-wrap: nowrap;&quot;&gt;%3CmxGraphModel%3E%3Croot%3E%3CmxCell%20id%3D%220%22%2F%3E%3CmxCell%20id%3D%221%22%20parent%3D%220%22%2F%3E%3CmxCell%20id%3D%222%22%20value%3D%22nome%22%20style%3D%22rounded%3D1%3BwhiteSpace%3Dwrap%3Bhtml%3D1%3BfillColor%3D%23647687%3BfontColor%3D%23ffffff%3BstrokeColor%3D%23314354%3B%22%20vertex%3D%221%22%20parent%3D%221%22%3E%3CmxGeometry%20x%3D%22419%22%20y%3D%221450%22%20width%3D%22300%22%20height%3D%2260%22%20as%3D%22geometry%22%2F%3E%3C%2FmxCell%3E%3C%2Froot%3E%3C%2FmxGraphModel%3E&lt;/span&gt;&lt;span style=&quot;color: rgba(0, 0, 0, 0); font-family: monospace; font-size: 0px; text-align: start; text-wrap: nowrap;&quot;&gt;%3CmxGraphModel%3E%3Croot%3E%3CmxCell%20id%3D%220%22%2F%3E%3CmxCell%20id%3D%221%22%20parent%3D%220%22%2F%3E%3CmxCell%20id%3D%222%22%20value%3D%22nome%22%20style%3D%22rounded%3D1%3BwhiteSpace%3Dwrap%3Bhtml%3D1%3BfillColor%3D%23647687%3BfontColor%3D%23ffffff%3BstrokeColor%3D%23314354%3B%22%20vertex%3D%221%22%20parent%3D%221%22%3E%3CmxGeometry%20x%3D%22419%22%20y%3D%221450%22%20width%3D%22300%22%20height%3D%2260%22%20as%3D%22geometry%22%2F%3E%3C%2FmxCell%3E%3C%2Froot%3E%3C%2FmxGraphModel%3E&lt;/span&gt;" style="rounded=1;whiteSpace=wrap;html=1;fillColor=#647687;fontColor=#ffffff;strokeColor=#314354;" vertex="1" parent="1">
          <mxGeometry x="419" y="1530" width="300" height="60" as="geometry" />
        </mxCell>
        <mxCell id="PdAt5Vxm2GwkRUOkbxM7-21" value="numero&lt;span style=&quot;color: rgba(0, 0, 0, 0); font-family: monospace; font-size: 0px; text-align: start; text-wrap: nowrap;&quot;&gt;%3CmxGraphModel%3E%3Croot%3E%3CmxCell%20id%3D%220%22%2F%3E%3CmxCell%20id%3D%221%22%20parent%3D%220%22%2F%3E%3CmxCell%20id%3D%222%22%20value%3D%22email%26lt%3Bspan%20style%3D%26quot%3Bcolor%3A%20rgba(0%2C%200%2C%200%2C%200)%3B%20font-family%3A%20monospace%3B%20font-size%3A%200px%3B%20text-align%3A%20start%3B%20text-wrap%3A%20nowrap%3B%26quot%3B%26gt%3B%253CmxGraphModel%253E%253Croot%253E%253CmxCell%2520id%253D%25220%2522%252F%253E%253CmxCell%2520id%253D%25221%2522%2520parent%253D%25220%2522%252F%253E%253CmxCell%2520id%253D%25222%2522%2520value%253D%2522nome%2522%2520style%253D%2522rounded%253D1%253BwhiteSpace%253Dwrap%253Bhtml%253D1%253BfillColor%253D%2523647687%253BfontColor%253D%2523ffffff%253BstrokeColor%253D%2523314354%253B%2522%2520vertex%253D%25221%2522%2520parent%253D%25221%2522%253E%253CmxGeometry%2520x%253D%2522419%2522%2520y%253D%25221450%2522%2520width%253D%2522300%2522%2520height%253D%252260%2522%2520as%253D%2522geometry%2522%252F%253E%253C%252FmxCell%253E%253C%252Froot%253E%253C%252FmxGraphModel%253E%26lt%3B%2Fspan%26gt%3B%26lt%3Bspan%20style%3D%26quot%3Bcolor%3A%20rgba(0%2C%200%2C%200%2C%200)%3B%20font-family%3A%20monospace%3B%20font-size%3A%200px%3B%20text-align%3A%20start%3B%20text-wrap%3A%20nowrap%3B%26quot%3B%26gt%3B%253CmxGraphModel%253E%253Croot%253E%253CmxCell%2520id%253D%25220%2522%252F%253E%253CmxCell%2520id%253D%25221%2522%2520parent%253D%25220%2522%252F%253E%253CmxCell%2520id%253D%25222%2522%2520value%253D%2522nome%2522%2520style%253D%2522rounded%253D1%253BwhiteSpace%253Dwrap%253Bhtml%253D1%253BfillColor%253D%2523647687%253BfontColor%253D%2523ffffff%253BstrokeColor%253D%2523314354%253B%2522%2520vertex%253D%25221%2522%2520parent%253D%25221%2522%253E%253CmxGeometry%2520x%253D%2522419%2522%2520y%253D%25221450%2522%2520width%253D%2522300%2522%2520height%253D%252260%2522%2520as%253D%2522geometry%2522%252F%253E%253C%252FmxCell%253E%253C%252Froot%253E%253C%252FmxGraphModel%253E%26lt%3B%2Fspan%26gt%3B%22%20style%3D%22rounded%3D1%3BwhiteSpace%3Dwrap%3Bhtml%3D1%3BfillColor%3D%23647687%3BfontColor%3D%23ffffff%3BstrokeColor%3D%23314354%3B%22%20vertex%3D%221%22%20parent%3D%221%22%3E%3CmxGeometry%20x%3D%22419%22%20y%3D%221530%22%20width%3D%22300%22%20height%3D%2260%22%20as%3D%22geometry%22%2F%3E%3C%2FmxCell%3E%3C%2Froot%3E%3C%2FmxGraphModel%3E&lt;/span&gt;" style="rounded=1;whiteSpace=wrap;html=1;fillColor=#647687;fontColor=#ffffff;strokeColor=#314354;" vertex="1" parent="1">
          <mxGeometry x="419" y="1600" width="300" height="60" as="geometry" />
        </mxCell>
        <mxCell id="PdAt5Vxm2GwkRUOkbxM7-22" value="mensagem" style="rounded=1;whiteSpace=wrap;html=1;fillColor=#647687;fontColor=#ffffff;strokeColor=#314354;" vertex="1" parent="1">
          <mxGeometry x="420" y="1670" width="300" height="120" as="geometry" />
        </mxCell>
        <mxCell id="PdAt5Vxm2GwkRUOkbxM7-24" value="enviar" style="rounded=1;whiteSpace=wrap;html=1;fillColor=#1ba1e2;fontColor=#ffffff;strokeColor=#006EAF;" vertex="1" parent="1">
          <mxGeometry x="520" y="1800" width="110" height="40" as="geometry" />
        </mxCell>
      </root>
    </mxGraphModel>
  </diagram>
</mxfile>
